<svg xmlns="http://www.w3.org/2000/svg" viewBox="0 0 57 23" width="57" height="23">
	<style>
		tspan { white-space:pre }
		.shp0 { fill: #e3e3e3 } 
		.shp1 { fill: #e4e4e4 } 
	</style>
	<path id="instagram" class="shp0" d="M53.45 22L38.18 22C36.78 22 35.64 20.88 35.64 19.5L35.64 4.5C35.64 3.12 36.78 2 38.18 2L53.45 2C54.86 2 56 3.12 56 4.5L56 19.5C56 20.88 54.86 22 53.45 22ZM45.82 8.12C44.23 8.12 42.87 9.05 42.24 10.37L42.24 10.37C42.23 10.39 42.23 10.4 42.22 10.42C42.18 10.5 42.15 10.58 42.12 10.67C42.1 10.71 42.09 10.75 42.07 10.79C42.04 10.88 42.02 10.97 42 11.06C41.98 11.1 41.97 11.14 41.96 11.18C41.94 11.28 41.93 11.37 41.91 11.47C41.91 11.51 41.9 11.55 41.9 11.59C41.88 11.72 41.87 11.86 41.87 12C41.87 14.14 43.64 15.88 45.82 15.88C48 15.88 49.76 14.14 49.76 12C49.76 11.86 49.76 11.72 49.74 11.59C49.74 11.55 49.73 11.51 49.72 11.47C49.71 11.37 49.69 11.28 49.67 11.18C49.66 11.14 49.65 11.1 49.64 11.06C49.62 10.97 49.59 10.88 49.56 10.79C49.55 10.75 49.53 10.71 49.52 10.67C49.49 10.58 49.45 10.5 49.42 10.42C49.41 10.4 49.41 10.39 49.4 10.37L49.4 10.37C48.77 9.05 47.41 8.12 45.82 8.12ZM53.71 5.25C53.71 4.7 53.25 4.25 52.69 4.25L50.65 4.25C50.09 4.25 49.64 4.7 49.64 5.25L49.64 7.25C49.64 7.8 50.09 8.25 50.65 8.25L52.69 8.25C53.25 8.25 53.71 7.8 53.71 7.25L53.71 5.25ZM53.71 10.37L51.83 10.37C51.98 10.89 52.05 11.44 52.05 12C52.05 15.38 49.26 18.12 45.82 18.12C42.37 18.12 39.58 15.38 39.58 12C39.58 11.44 39.66 10.89 39.8 10.37L37.93 10.37L37.93 18.75C37.93 19.3 38.38 19.75 38.95 19.75L52.69 19.75C53.25 19.75 53.71 19.3 53.71 18.75L53.71 10.37Z" />
	<path id="twitter" class="shp1" d="M14.85 3.88C16.47 3.85 17.33 4.43 18.15 5.16C18.85 5.1 19.76 4.72 20.29 4.45C20.47 4.36 20.64 4.27 20.81 4.18C20.51 4.99 20.09 5.62 19.46 6.1C19.32 6.21 19.18 6.35 19 6.42C19 6.42 19 6.43 19 6.43C19.91 6.42 20.65 6.02 21.36 5.8C21.36 5.81 21.36 5.81 21.36 5.81C20.99 6.39 20.49 6.99 19.95 7.41C19.73 7.58 19.51 7.75 19.29 7.92C19.31 8.86 19.28 9.76 19.1 10.55C18.06 15.16 15.29 18.28 10.92 19.62C9.35 20.11 6.81 20.3 5.01 19.86C4.11 19.65 3.31 19.4 2.55 19.08C2.13 18.89 1.74 18.7 1.37 18.48C1.24 18.4 1.12 18.33 1 18.26C1.41 18.27 1.88 18.38 2.34 18.31C2.75 18.24 3.15 18.26 3.53 18.18C4.47 17.97 5.31 17.7 6.03 17.29C6.39 17.09 6.92 16.85 7.17 16.56C6.7 16.57 6.27 16.46 5.92 16.34C4.57 15.87 3.78 15.01 3.27 13.72C3.68 13.76 4.86 13.86 5.14 13.64C4.62 13.61 4.13 13.32 3.77 13.1C2.69 12.43 1.8 11.31 1.81 9.58C1.95 9.65 2.09 9.72 2.23 9.78C2.51 9.9 2.78 9.96 3.11 10.02C3.25 10.05 3.52 10.13 3.68 10.07C3.67 10.07 3.67 10.07 3.66 10.07C3.45 9.83 3.11 9.67 2.9 9.41C2.2 8.56 1.54 7.25 1.96 5.69C2.06 5.3 2.23 4.95 2.41 4.62C2.41 4.63 2.42 4.63 2.43 4.63C2.51 4.8 2.69 4.92 2.8 5.06C3.16 5.5 3.6 5.89 4.05 6.23C5.57 7.4 6.95 8.12 9.15 8.66C9.71 8.79 10.36 8.89 11.03 8.9C10.84 8.36 10.9 7.49 11.05 6.97C11.42 5.66 12.23 4.72 13.41 4.22C13.7 4.09 14.01 4.01 14.34 3.94C14.51 3.92 14.68 3.9 14.85 3.88Z" />
</svg>