<svg xmlns="http://www.w3.org/2000/svg" viewBox="0 0 13 57" width="13" height="57">
	<style>
		tspan { white-space:pre }
		.shp0 { opacity: 0.329;fill: #d0d0d0 } 
		.shp1 { opacity: 0.659;fill: #d0d0d0 } 
		.shp2 { fill: #d0d0d0 } 
	</style>
	<path id="Ellipse 1" class="shp0" d="M7 2C9.76 2 12 4.24 12 7C12 9.76 9.76 12 7 12C4.24 12 2 9.76 2 7C2 4.24 4.24 2 7 2Z" />
	<path id="Ellipse 1 copy" class="shp1" d="M7 24C9.76 24 12 26.24 12 29C12 31.76 9.76 34 7 34C4.24 34 2 31.76 2 29C2 26.24 4.24 24 7 24Z" />
	<path id="Ellipse 1 copy 2" class="shp2" d="M7 46C9.76 46 12 48.24 12 51C12 53.76 9.76 56 7 56C4.24 56 2 53.76 2 51C2 48.24 4.24 46 7 46Z" />
</svg>